<?xml version="1.0" encoding="utf-8"?>
<!-- Generator: Adobe Illustrator 27.2.0, SVG Export Plug-In . SVG Version: 6.00 Build 0)  -->
<svg version="1.0" id="Calque_1" xmlns="http://www.w3.org/2000/svg" xmlns:xlink="http://www.w3.org/1999/xlink" x="0px" y="0px"
	 viewBox="0 0 267.1 74.5" style="enable-background:new 0 0 267.1 74.5;" xml:space="preserve">
<style type="text/css">
	.st0{fill:url(#SVGID_1_);}
	.st1{fill:url(#SVGID_00000069400430693188522590000002965565945294067886_);}
	.st2{fill:url(#SVGID_00000025432631918754117610000000451806152223123600_);}
	.st3{fill:#A05524;}
	.st4{fill:url(#SVGID_00000114776341505718388400000016866965285694744979_);}
	.st5{fill:url(#SVGID_00000071541726267567606720000004733494542959110047_);}
	.st6{fill:url(#SVGID_00000076583610025103881110000007706632635539083950_);}
	.st7{fill:url(#SVGID_00000026857948527097218070000004830406016068182148_);}
	.st8{fill:url(#SVGID_00000144330587417688050770000004860831592155065534_);}
	.st9{opacity:0.12;fill:#B45E21;}
	.st10{opacity:0.8;fill:#F4EF80;}
	.st11{opacity:0.47;fill:#FAF8CB;}
	.st12{opacity:0.81;fill:url(#SVGID_00000016784150525269944190000016266252690170436485_);}
	.st13{opacity:0.22;fill:#F8F4A8;}
	.st14{opacity:0.47;fill:url(#SVGID_00000002358768369439509290000013844657167101126585_);}
	.st15{fill:url(#SVGID_00000158021358999148316910000013352158589790751669_);}
	.st16{opacity:0.3;fill:#FFFFFF;}
	.st17{fill:#FFFFFF;}
	.st18{opacity:0.81;fill:url(#SVGID_00000045603715380026842470000010843985222938816419_);}
</style>
<g>
	<g>
		<path d="M22.6,32.8v7.6H41v11.2H22.6v14.1H7.8V21.6h36.6v11.2H22.6z"/>
		<path d="M67.2,54.6h-4v11.1H48.3V21.6h21.2c12.3,0,20.1,6.4,20.1,16.6c0,6.4-3,11.1-8.3,13.8l9.3,13.6H74.7L67.2,54.6z M68.6,33.1
			h-5.4v10.3h5.4c4.1,0,6-2,6-5.2C74.6,35,72.7,33.1,68.6,33.1z"/>
		<path d="M131.8,54.5v11.2H95.2V21.6H131v11.2h-21.2V38h18.6v10.7h-18.6v5.8H131.8z"/>
		<path d="M158.4,54.5v-5.8h-18.6V38h18.6v-5.2h-21.2V21.6H173v44.1h-36.6V54.5H158.4z"/>
	</g>
	<linearGradient id="SVGID_1_" gradientUnits="userSpaceOnUse" x1="172.9747" y1="43.8275" x2="216.3356" y2="43.8275">
		<stop  offset="0" style="stop-color:#F1E53A"/>
		<stop  offset="1" style="stop-color:#DC9813"/>
	</linearGradient>
	<path class="st0" d="M216.3,46.8c0,12.1-8.3,19.6-18.2,19.6c-4.7,0-8.1-1.2-10.3-3.8v3.1H173V21.3h15.6v9.2
		c2.3-2.2,5.4-3.2,9.6-3.2C208,27.3,216.3,34.6,216.3,46.8z M200.5,46.8c0-4.9-2.7-7.4-6.1-7.4c-3.4,0-6.1,2.5-6.1,7.4
		c0,4.9,2.7,7.4,6.1,7.4C197.9,54.2,200.5,51.7,200.5,46.8z"/>
	<g>
		<path d="M219.2,29.4l13.7,4.1l-10,33.1l-13.7-4.1L219.2,29.4z"/>
	</g>
	<g>
		
			<linearGradient id="SVGID_00000049903947972891697990000003299461708078313897_" gradientUnits="userSpaceOnUse" x1="230.1614" y1="41.812" x2="258.824" y2="41.812">
			<stop  offset="0" style="stop-color:#F1E53A"/>
			<stop  offset="1" style="stop-color:#DC9813"/>
		</linearGradient>
		<path style="fill:url(#SVGID_00000049903947972891697990000003299461708078313897_);" d="M248.8,32.9h7.5v10.4h-7.1v22.3h-14.3
			V43.3h-4.7V32.9h4.7v-0.2c0-8.9,5.6-14.7,15.4-14.7c3,0,6.4,0.6,8.5,1.7l-3.4,9.9c-0.9-0.4-2.1-0.8-3.2-0.8
			C250.2,28.8,248.8,30,248.8,32.9L248.8,32.9z"/>
	</g>
	<g>
		
			<linearGradient id="SVGID_00000066477997450355761270000000351014030356501944_" gradientUnits="userSpaceOnUse" x1="232.6229" y1="12.9257" x2="232.4624" y2="28.447">
			<stop  offset="0" style="stop-color:#D28E11"/>
			<stop  offset="1" style="stop-color:#A05524"/>
		</linearGradient>
		<path style="fill:url(#SVGID_00000066477997450355761270000000351014030356501944_);" d="M236.9,9.4c4,2.8,6.4,8.8,4.6,13.8
			c-2.2,5.9-8.3,8.6-13.9,6.7c-1.3-0.5-3.4-1.6-4.1-2.5C220.5,24,236.2,8.9,236.9,9.4z"/>
		<g>
			<path class="st3" d="M238.7,27.4c-0.3-0.3-0.8-0.8-1.1-1.1c-0.2-0.2-0.6,0.2-0.4,0.4c0.3,0.2,0.8,0.7,1.1,1
				C238.5,27.6,238.6,27.5,238.7,27.4z"/>
			<path class="st3" d="M239.2,26.9c0.1-0.1,0.2-0.2,0.3-0.3c-0.1-0.1-0.8-0.7-1.1-1c-0.1-0.1-0.4,0.3-0.3,0.4
				C238.2,26.1,239,26.8,239.2,26.9z"/>
			<path class="st3" d="M240,25.9c0-0.1,0.2-0.3,0.2-0.3c-0.2-0.1-0.8-0.7-1.2-0.9c-0.3-0.1-0.5,0.2-0.3,0.4
				C239.1,25.3,239.9,25.9,240,25.9z"/>
			<path class="st3" d="M240.8,24.6c0,0-0.8-0.6-1.2-0.9c-0.3-0.2-0.5,0.2-0.2,0.4c0.3,0.2,1.1,0.8,1.2,0.8
				C240.6,24.9,240.8,24.6,240.8,24.6z"/>
			<path class="st3" d="M241.1,23.9c0,0,0.1-0.4,0.2-0.4c-0.3-0.3-0.8-0.6-1.2-0.8c-0.3-0.2-0.5,0.3-0.2,0.5
				C240.2,23.4,241.1,23.9,241.1,23.9z"/>
			<path class="st3" d="M241.7,22.3c-0.1-0.1-0.8-0.6-1.1-0.8c-0.3-0.2-0.4,0.3-0.1,0.5c0.3,0.2,0.8,0.5,1.1,0.8
				C241.6,22.7,241.7,22.5,241.7,22.3z"/>
			<path class="st3" d="M242,21c-0.3-0.2-0.8-0.4-1.1-0.6c-0.3-0.1-0.4,0.3-0.1,0.5c0.3,0.2,1.1,0.6,1.2,0.6
				C241.9,21.3,242,21.1,242,21z"/>
			<path class="st3" d="M242.1,19.6c-0.3-0.2-0.7-0.4-1-0.6c-0.3-0.2-0.5,0.2-0.2,0.4c0.3,0.2,0.9,0.5,1.2,0.7
				C242,20,242.1,19.7,242.1,19.6z"/>
			<path class="st3" d="M242,18.4c-0.3-0.2-0.6-0.4-0.9-0.6c-0.2-0.2-0.5,0.2-0.2,0.4c0.4,0.3,0.8,0.6,1.2,0.8
				C242,18.8,242,18.5,242,18.4z"/>
			<path class="st3" d="M237.8,28.2c-0.2-0.2-0.8-0.9-0.9-1c-0.2-0.2-0.6,0.1-0.4,0.3c0.1,0.1,0.9,0.9,1,1
				C237.5,28.4,237.6,28.3,237.8,28.2z"/>
			<path class="st3" d="M241.7,16.9c-0.2-0.2-0.5-0.3-0.8-0.5c-0.3-0.2-0.4,0.2-0.2,0.4c0.3,0.2,1,0.8,1.1,0.8
				C241.8,17.3,241.8,17.1,241.7,16.9z"/>
			<path class="st3" d="M241.3,15.5c-0.2-0.1-0.4-0.3-0.6-0.5c-0.1-0.1-0.2,0.4-0.1,0.5c0.3,0.2,0.7,0.5,1,0.6
				C241.5,15.9,241.4,15.7,241.3,15.5z"/>
			<path class="st3" d="M240.7,14c-0.1-0.1-0.3-0.2-0.5-0.4c-0.2-0.2-0.4,0.2-0.1,0.4c0.3,0.2,0.9,0.6,0.9,0.7
				C241,14.6,240.8,14.1,240.7,14z"/>
		</g>
		<g>
			
				<linearGradient id="SVGID_00000038372372328244321070000009569638109523348904_" gradientUnits="userSpaceOnUse" x1="226.9715" y1="9.4828" x2="233.6362" y2="28.2084">
				<stop  offset="0" style="stop-color:#F1E53A"/>
				<stop  offset="1" style="stop-color:#DC9813"/>
			</linearGradient>
			<path style="fill:url(#SVGID_00000038372372328244321070000009569638109523348904_);" d="M234.1,7.8c5.5,2.1,8.2,8.5,6,14.3
				s-8.4,8.9-14,6.9c-5.5-2.1-8.2-8.5-6-14.3C222.3,8.8,228.6,5.8,234.1,7.8z"/>
			
				<linearGradient id="SVGID_00000002372725539987969950000009520425850834069639_" gradientUnits="userSpaceOnUse" x1="224.6672" y1="9.0009" x2="235.6163" y2="27.8009">
				<stop  offset="0" style="stop-color:#EFED79"/>
				<stop  offset="0.9901" style="stop-color:#C87515"/>
			</linearGradient>
			<path style="fill:url(#SVGID_00000002372725539987969950000009520425850834069639_);" d="M229.8,29.8c-1.2,0-2.4-0.2-3.6-0.7
				c-2.7-1-4.9-3.1-6-5.8c-1.2-2.7-1.2-5.8-0.1-8.7c1.1-2.9,3.1-5.2,5.8-6.5c2.7-1.3,5.7-1.5,8.4-0.5c2.7,1,4.9,3.1,6,5.8
				c1.2,2.7,1.2,5.8,0.1,8.7c-1.1,2.9-3.1,5.2-5.8,6.5C233,29.5,231.4,29.8,229.8,29.8z M230.5,7.4c-1.6,0-3.1,0.4-4.6,1.1
				c-2.6,1.3-4.6,3.5-5.6,6.3c-1,2.8-1,5.8,0.1,8.5c1.1,2.7,3.2,4.7,5.8,5.6c2.6,1,5.5,0.8,8.1-0.5c2.6-1.3,4.6-3.5,5.6-6.3
				c1-2.8,1-5.8-0.1-8.5C238.7,11,236.7,9,234,8C232.9,7.6,231.7,7.4,230.5,7.4z"/>
		</g>
		<g>
			
				<linearGradient id="SVGID_00000111872262130490192340000000088010972288723104_" gradientUnits="userSpaceOnUse" x1="236.5908" y1="24.2055" x2="223.877" y2="13.0157">
				<stop  offset="0" style="stop-color:#EFDD4E"/>
				<stop  offset="1" style="stop-color:#BB641E"/>
			</linearGradient>
			<path style="fill:url(#SVGID_00000111872262130490192340000000088010972288723104_);" d="M229.8,27.6c-1,0-1.9-0.2-2.9-0.5
				c-2.2-0.8-3.9-2.5-4.8-4.6c-0.9-2.2-1-4.6-0.1-6.9c1.8-4.7,6.8-7.2,11.2-5.5c2.2,0.8,3.9,2.5,4.8,4.6c0.9,2.2,1,4.6,0.1,6.9
				C236.8,25.3,233.4,27.6,229.8,27.6z M230.5,10c-3.4,0-6.6,2.2-7.9,5.7c-0.8,2.2-0.8,4.5,0.1,6.6c0.9,2.1,2.5,3.6,4.5,4.4
				c0.9,0.3,1.8,0.5,2.7,0.5c3.4,0,6.6-2.2,7.9-5.7c0.8-2.2,0.8-4.5-0.1-6.6c-0.9-2.1-2.5-3.6-4.5-4.4C232.3,10.1,231.4,10,230.5,10
				z"/>
		</g>
		<g>
			
				<linearGradient id="SVGID_00000044160306957478816970000000132919917603214999_" gradientUnits="userSpaceOnUse" x1="228.9981" y1="17.4486" x2="234.3477" y2="21.7375">
				<stop  offset="0" style="stop-color:#F1E53A"/>
				<stop  offset="0.9951" style="stop-color:#DC9813"/>
			</linearGradient>
			<path style="fill:url(#SVGID_00000044160306957478816970000000132919917603214999_);" d="M234.5,15.3c-0.2-1-0.8-1.9-1.9-2.5
				c0.1-0.4,0.3-0.7,0.1-1.2c-0.2-0.5-2.4-0.9-2.8-0.5c-0.4,0.4-0.3,0.7-0.3,1.2c-0.5,0.1-1,0.3-1.4,0.5c-1.1,0.6-1.8,1.7-1.8,2.8
				c0,1.1,0.6,2,1.6,2.6c0.5,0.3,1,0.5,1.5,0.8c0.2,0.1,2.6,1.1,2.5,2.1c-0.1,0.8-1,1.3-1.8,1.2c-1.4-0.1-2-1.2-1.9-2.1
				c0-0.7-0.6-1.3-1.4-1.4c-0.8-0.1-1.5,0.4-1.6,1.1c-0.3,1.8,0.7,3.6,2.8,4.5c0.1,0-0.2,0.7,0,1c0.4,0.5,2,0.7,2.7,0.4
				c0.4-0.1,0.3-0.6,0.4-1c1.1-0.1,2.2-0.6,2.9-1.3c0.7-0.7,1-1.6,1-2.5c0-1.2-0.5-2-1.6-2.8c-0.9-0.6-3.4-1.5-3.8-2.2
				c-0.3-0.5,0-1.3,0.9-1.3c0.5,0,0.9,0.4,1,0.9C231.9,17.2,234.8,16.9,234.5,15.3L234.5,15.3z"/>
			<g>
				
					<linearGradient id="SVGID_00000102508311170843413760000017808438234895597759_" gradientUnits="userSpaceOnUse" x1="227.6484" y1="17.0528" x2="231.4941" y2="19.1476">
					<stop  offset="0" style="stop-color:#F4EF80"/>
					<stop  offset="0.5074" style="stop-color:#DC9813"/>
					<stop  offset="1" style="stop-color:#A05524"/>
				</linearGradient>
				<path style="fill:url(#SVGID_00000102508311170843413760000017808438234895597759_);" d="M229.9,26.2c-0.8,0-1.7-0.2-2-0.6
					c-0.2-0.3-0.1-0.7-0.1-0.9c0,0,0,0,0-0.1c-2-0.8-3.1-2.7-2.8-4.6c0.1-0.8,0.9-1.3,1.8-1.2c0.9,0.1,1.5,0.8,1.5,1.6
					c0,0.8,0.6,1.8,1.8,1.9c0.7,0.1,1.6-0.3,1.7-1c0-0.3-0.1-0.9-2.3-1.9c0,0-0.1,0-0.1,0l-0.1,0c-0.5-0.2-1-0.5-1.4-0.8
					c-1.2-0.8-1.8-1.8-1.7-2.8c0.1-1.2,0.8-2.3,1.9-2.9c0.4-0.2,0.8-0.4,1.3-0.5c0-0.1,0-0.2,0-0.2c0-0.3,0-0.6,0.4-1
					c0.4-0.3,1.4-0.2,1.7-0.1c0.3,0.1,1.2,0.3,1.4,0.7c0.2,0.4,0.1,0.7,0,1c0,0.1,0,0.1-0.1,0.2c0.9,0.6,1.6,1.5,1.8,2.5l0,0
					c0.2,0.8-0.4,1.4-1.1,1.5c-0.9,0.2-1.9-0.2-2.2-1.1c-0.1-0.4-0.4-0.7-0.9-0.8c-0.3,0-0.6,0.1-0.7,0.3c-0.1,0.2-0.1,0.5,0,0.7
					c0.2,0.4,1.4,1,2.3,1.4c0.6,0.3,1.1,0.5,1.4,0.8c1.1,0.8,1.6,1.7,1.6,2.9c0,1-0.4,2-1.1,2.7c-0.7,0.7-1.7,1.2-2.9,1.4
					c0,0,0,0.1,0,0.1c0,0.4,0,0.8-0.5,0.9C230.5,26.1,230.2,26.2,229.9,26.2z M226.6,19.1c-0.6,0-1.2,0.4-1.3,0.9
					c-0.3,1.8,0.8,3.5,2.7,4.3c0.2,0.1,0.1,0.2,0.1,0.4c0,0.2-0.1,0.5,0,0.6c0.3,0.4,1.8,0.6,2.5,0.4c0.2-0.1,0.2-0.2,0.2-0.6
					c0-0.1,0-0.2,0-0.3l0-0.1l0.1,0c1.1-0.1,2.1-0.6,2.8-1.3c0.6-0.6,1-1.5,1-2.4c0-1.1-0.5-1.9-1.5-2.6c-0.3-0.2-0.8-0.5-1.4-0.7
					c-1.1-0.5-2.2-1.1-2.5-1.6c-0.2-0.3-0.2-0.8,0-1.1c0.2-0.3,0.6-0.5,1-0.4c0.6,0.1,1.1,0.5,1.2,1c0.2,0.8,1,1,1.7,0.9
					c0.5-0.1,1-0.5,0.8-1.1c-0.2-1-0.9-1.9-1.8-2.4l-0.1-0.1l0-0.1c0-0.1,0.1-0.2,0.1-0.3c0.1-0.2,0.1-0.5,0-0.7
					c-0.1-0.1-0.5-0.3-1.2-0.5c-0.7-0.1-1.2-0.1-1.4,0c-0.2,0.2-0.2,0.4-0.2,0.7c0,0.1,0,0.3,0,0.4l0,0.1l-0.1,0
					c-0.5,0.1-0.9,0.3-1.3,0.5c-1,0.6-1.7,1.6-1.8,2.6c-0.1,1.2,0.8,2,1.6,2.5c0.4,0.3,0.9,0.5,1.4,0.7l0.1,0c0,0,0,0,0.1,0
					c1.8,0.8,2.6,1.6,2.5,2.3c-0.1,1-1.1,1.4-2,1.4c-1.4-0.1-2.1-1.2-2.1-2.2c0-0.6-0.5-1.1-1.2-1.2
					C226.7,19.1,226.7,19.1,226.6,19.1z"/>
			</g>
		</g>
		<path class="st9" d="M221.7,18.8L221.7,18.8c-0.2-0.2-0.6-0.4-0.8-0.4c-0.5-0.1-1.2-0.2-1.7,0.2c-0.1,4.6,2.6,9,6.9,10.6
			c5.5,2.1,12-1.1,14.2-7c0.4-1.2,0.7-2.5,0.8-3.7c-0.5-0.3-1.4-0.4-2-0.2c-0.2,0-0.4,0.2-0.5,0.3l0,0c-0.2,0.1-0.3,0.3-0.5,0.4
			c-0.9,0.2-2.5,0.4-3.5,0c-0.3-0.2-0.6-0.2-0.9-0.4c-1.1,1-3.4,0.8-4.2,0.3c-0.2,0.1-0.3,0.3-0.4,0.4c-0.2,0.2-0.5,0.4-1,0.3
			c-0.6,1-2.6,0.9-2.8,0.2c-1.1,0-2.4-0.2-2.9-0.5C222.3,19.2,221.9,18.9,221.7,18.8z M238,22c-0.3,0.8-0.8,1.6-1.4,2.3
			c-0.6,0.8-1.4,1.4-2.2,2c-0.2,0.2-0.5-0.2-0.2-0.4c0.8-0.6,1.5-1.1,2.1-1.8c0.5-0.6,1-1.4,1.3-2.2C237.7,21.6,238.2,21.7,238,22z"
			/>
		<g>
			<path class="st10" d="M228.2,7.5c-2.2,0.7-4.8,1.8-6.1,3.8c-0.7,1.2,0.9,2.2,1.9,1.1c0.6-0.7,1.3-1.2,2-1.7
				c0.9-0.6,1.8-0.9,2.8-1.1C230.1,9.3,229.5,7.1,228.2,7.5z"/>
			<polygon class="st11" points="225.8,11.2 223.7,10.3 223.5,8.1 225.3,6.7 227.3,7.6 227.6,9.9 			"/>
			
				<radialGradient id="SVGID_00000067936364949917994760000004445706126886545087_" cx="592.562" cy="-98.3388" r="1.0816" gradientTransform="matrix(0.9717 0.2361 -0.2361 0.9717 -373.3101 -35.3955)" gradientUnits="userSpaceOnUse">
				<stop  offset="0" style="stop-color:#FFFFFF"/>
				<stop  offset="1" style="stop-color:#FAF8CB"/>
			</radialGradient>
			<polygon style="opacity:0.81;fill:url(#SVGID_00000067936364949917994760000004445706126886545087_);" points="226.2,9.9 
				225.1,9.9 224.6,8.9 225.2,8 226.3,8 226.8,9 			"/>
			<polygon class="st13" points="237.2,24.9 236.1,25.5 235.1,24.8 235.2,23.6 236.3,23 237.3,23.7 			"/>
			
				<radialGradient id="SVGID_00000083050524818740141530000001637864815185768126_" cx="236.1829" cy="24.214" r="0.843" gradientUnits="userSpaceOnUse">
				<stop  offset="0" style="stop-color:#FFFFFF"/>
				<stop  offset="0.9901" style="stop-color:#F4E68F"/>
			</radialGradient>
			<polygon style="opacity:0.47;fill:url(#SVGID_00000083050524818740141530000001637864815185768126_);" points="236.5,25 
				235.6,24.9 235.3,24.1 235.9,23.4 236.7,23.5 237,24.4 			"/>
			
				<radialGradient id="SVGID_00000166677389048332629700000011936406430688728504_" cx="236.2506" cy="24.1897" r="0.4204" gradientUnits="userSpaceOnUse">
				<stop  offset="0" style="stop-color:#FFFFFF"/>
				<stop  offset="1" style="stop-color:#F8F5B5"/>
			</radialGradient>
			<polygon style="fill:url(#SVGID_00000166677389048332629700000011936406430688728504_);" points="236.5,24.5 236.1,24.6 
				235.8,24.3 236,23.9 236.4,23.8 236.7,24.1 			"/>
			<polygon class="st16" points="227.6,14.3 225.6,9.2 221.2,13 225.3,8.9 219.9,5.9 225.6,8.5 227,4 226,8.6 231.5,9.5 226,9.1 			
				"/>
			<polygon class="st17" points="227.4,13.9 225.6,9 221.6,12.6 225.4,8.8 220.5,6.2 225.6,8.7 226.8,4.7 225.8,8.8 230.9,9 
				225.9,9 			"/>
			<polygon class="st11" points="229.7,13.5 228.7,13.3 228.5,12.3 229.2,11.7 230.2,12 230.4,12.9 			"/>
			
				<radialGradient id="SVGID_00000145053668708226081490000009885755610572757418_" cx="528.0473" cy="-89.859" r="0.4626" gradientTransform="matrix(0.9914 0.1305 -0.1305 0.9914 -305.7026 32.7629)" gradientUnits="userSpaceOnUse">
				<stop  offset="0" style="stop-color:#FFFFFF"/>
				<stop  offset="1" style="stop-color:#FAF8CB"/>
			</radialGradient>
			<polygon style="opacity:0.81;fill:url(#SVGID_00000145053668708226081490000009885755610572757418_);" points="229.8,13 
				229.3,13 229.1,12.6 229.3,12.2 229.7,12.2 230,12.6 			"/>
			<polygon class="st16" points="230.6,14.8 229.5,12.7 227.8,14.5 229.4,12.6 226.9,11.6 229.5,12.4 229.8,10.4 229.6,12.4 
				232,12.5 229.7,12.6 			"/>
			<polygon class="st17" points="230.5,14.6 229.5,12.6 228,14.3 229.4,12.6 227.2,11.7 229.5,12.5 229.8,10.7 229.6,12.5 
				231.7,12.4 229.6,12.6 			"/>
		</g>
	</g>
</g>
</svg>
