<?xml version="1.0" encoding="utf-8"?>
<!-- Generator: Adobe Illustrator 27.2.0, SVG Export Plug-In . SVG Version: 6.00 Build 0)  -->
<svg version="1.1" id="Calque_1" xmlns="http://www.w3.org/2000/svg" xmlns:xlink="http://www.w3.org/1999/xlink" x="0px" y="0px"
	 viewBox="0 0 1920 1080" style="enable-background:new 0 0 1920 1080;" xml:space="preserve">
<style type="text/css">
	.st0{display:none;}
	.st1{display:inline;fill:url(#SVGID_1_);}
	.st2{fill:url(#SVGID_00000021091421620268243650000001617321752651563906_);}
	.st3{fill:url(#SVGID_00000160162196521215148680000017554237992663485857_);}
	.st4{fill:url(#SVGID_00000007398880198262016770000010361337457238259584_);}
</style>
<g id="Calque_1_00000121968190460241796970000008935081893153382819_" class="st0">
	
		<linearGradient id="SVGID_1_" gradientUnits="userSpaceOnUse" x1="959.6113" y1="581.8897" x2="960.894" y2="503.1297" gradientTransform="matrix(1 0 0 -1 0 1080)">
		<stop  offset="0" style="stop-color:#FDD733"/>
		<stop  offset="1" style="stop-color:#FBC12A"/>
	</linearGradient>
	<path class="st1" d="M999,524.5l-24.6-3.6l-11-22.3c-1.4-2.7-5.3-2.7-6.6,0l-11,22.3l-24.6,3.6c-3,0.4-4.2,4.1-2,6.3l17.8,17.4
		l-4.2,24.5c-0.5,3,2.6,5.3,5.3,3.9l22-11.6l22,11.6c2.7,1.4,5.9-0.9,5.3-3.9l-4.2-24.5l17.8-17.4
		C1003.2,528.6,1002,524.9,999,524.5z M999,528.7l-18.9,18.4l4.5,26c0,0.3,0,0.5-0.2,0.7s-0.4,0.3-0.6,0.3c-0.1,0-0.3,0-0.4-0.1
		L960,561.7L936.7,574c-0.1,0.1-0.3,0.1-0.4,0.1c-0.2,0-0.5-0.1-0.6-0.3c-0.2-0.2-0.2-0.4-0.2-0.7l4.5-26l-19-18.4
		c-0.3-0.3-0.3-0.6-0.2-0.8s0.2-0.5,0.7-0.6l26.1-3.8l11.7-23.7c0.2-0.4,0.5-0.5,0.7-0.5s0.5,0.1,0.7,0.5l11.7,23.7l26.1,3.8
		c0.4,0.1,0.6,0.3,0.7,0.6C999.3,528.1,999.3,528.4,999,528.7z"/>
</g>
<g id="Calque_2_00000137812095906933934510000006325069436137213835_">
	<g>
		
			<linearGradient id="SVGID_00000066492327644024534970000011424417288187643267_" gradientUnits="userSpaceOnUse" x1="954.5052" y1="580.1054" x2="969.6033" y2="501.7543" gradientTransform="matrix(1 0 0 -1 0 1080)">
			<stop  offset="0" style="stop-color:#FDD733"/>
			<stop  offset="1" style="stop-color:#F9AB21"/>
		</linearGradient>
		<path style="fill:url(#SVGID_00000066492327644024534970000011424417288187643267_);" d="M963.3,498.6l11,22.3l24.6,3.6
			c3,0.4,4.2,4.1,2,6.3l-17.8,17.4l4.2,24.5c0.5,3-2.6,5.3-5.3,3.9L960,565l-22,11.6c-2.7,1.4-5.9-0.9-5.3-3.9l4.2-24.5L919,530.8
			c-2.2-2.1-1-5.8,2-6.3l24.6-3.6l11-22.3C958.1,495.8,962,495.8,963.3,498.6z"/>
		
			<linearGradient id="SVGID_00000153701017223556507140000012348790000726013885_" gradientUnits="userSpaceOnUse" x1="957.9072" y1="573.4163" x2="964.1054" y2="509.5276" gradientTransform="matrix(1 0 0 -1 0 1080)">
			<stop  offset="0" style="stop-color:#FDE265"/>
			<stop  offset="1" style="stop-color:#FDD733"/>
		</linearGradient>
		<path style="fill:url(#SVGID_00000153701017223556507140000012348790000726013885_);" d="M983.8,574.1c-0.1,0-0.3,0-0.4-0.1
			L960,561.7L936.7,574c-0.1,0.1-0.3,0.1-0.4,0.1c-0.2,0-0.5-0.1-0.6-0.3c-0.2-0.2-0.2-0.4-0.2-0.7l4.5-26l-19-18.4
			c-0.3-0.3-0.3-0.6-0.2-0.8s0.2-0.5,0.7-0.6l26.1-3.8l11.7-23.7c0.2-0.4,0.5-0.5,0.7-0.5s0.5,0.1,0.7,0.5l11.7,23.7l26.1,3.8
			c0.4,0.1,0.6,0.3,0.7,0.6c0.1,0.2,0.1,0.5-0.2,0.8l-18.9,18.4l4.5,26c0,0.3,0,0.5-0.2,0.7C984.3,574,984,574.1,983.8,574.1z"/>
		
			<linearGradient id="SVGID_00000147181242820962721190000012220446047777755275_" gradientUnits="userSpaceOnUse" x1="959.5555" y1="579.1402" x2="960.7474" y2="505.9543" gradientTransform="matrix(1 0 0 -1 0 1080)">
			<stop  offset="0" style="stop-color:#FDD733"/>
			<stop  offset="1" style="stop-color:#FBC12A"/>
		</linearGradient>
		<path style="fill:url(#SVGID_00000147181242820962721190000012220446047777755275_);" d="M999,528.7c0.3-0.3,0.3-0.6,0.2-0.8
			s-0.2-0.5-0.7-0.6l-26.1-3.8l-11.7-23.7c-0.2-0.4-0.5-0.5-0.7-0.5s-0.5,0.1-0.7,0.5l-11.7,23.7l-26.1,3.8
			c-0.4,0.1-0.6,0.3-0.7,0.6c-0.1,0.2-0.1,0.5,0.2,0.8l18.9,18.4l-4.5,26c0,0.3,0,0.5,0.2,0.7s0.4,0.3,0.6,0.3c0.1,0,0.3,0,0.4-0.1
			l23.4-12.3l23.4,12.3c0.1,0.1,0.3,0.1,0.4,0.1c0.2,0,0.5-0.1,0.6-0.3c0.2-0.2,0.2-0.4,0.2-0.7l-4.5-26L999,528.7z M983.9,573.3
			C983.8,573.4,983.8,573.4,983.9,573.3L960,560.9l-23.7,12.5c0,0-0.1,0-0.1-0.1l4.5-26.4l-19.2-18.7c0,0,0,0,0-0.1s0-0.1,0.1-0.1
			l26.5-3.9l11.9-24c0-0.1,0-0.1,0.1-0.1s0.1,0,0.1,0.1l11.9,24l26.5,3.9c0.1,0,0.1,0,0.1,0.1s0,0.1,0,0.1l-19.2,18.7L983.9,573.3z"
			/>
	</g>
</g>
</svg>
