<?xml version="1.0" encoding="utf-8"?>
<!-- Generator: Adobe Illustrator 27.2.0, SVG Export Plug-In . SVG Version: 6.00 Build 0)  -->
<svg version="1.1" xmlns="http://www.w3.org/2000/svg" xmlns:xlink="http://www.w3.org/1999/xlink" x="0px" y="0px"
	 viewBox="0 0 1920 1080" style="enable-background:new 0 0 1920 1080;" xml:space="preserve">
<style type="text/css">
	.st0{fill:url(#SVGID_1_);}
	.st1{display:none;}
	.st2{display:inline;}
	.st3{fill:url(#SVGID_00000087399276683646044880000017672100846964806285_);}
	.st4{fill:url(#SVGID_00000098904399251830635120000016314869049733988996_);}
	.st5{fill:url(#SVGID_00000091718690946449778820000008075460931955188389_);}
	.st6{fill:url(#SVGID_00000116953853040018095760000007121482022348706477_);}
</style>
<g id="Calque_1">
	<linearGradient id="SVGID_1_" gradientUnits="userSpaceOnUse" x1="959.5348" y1="498.1115" x2="960.8175" y2="576.8715">
		<stop  offset="0" style="stop-color:#FDD733"/>
		<stop  offset="1" style="stop-color:#FBC12A"/>
	</linearGradient>
	<path class="st0" d="M999,524.5l-24.6-3.6l-11-22.3c-1.4-2.7-5.3-2.7-6.6,0l-11,22.3l-24.6,3.6c-3,0.4-4.2,4.1-2,6.3l17.8,17.4
		l-4.2,24.5c-0.5,3,2.6,5.3,5.3,3.9l22-11.6l22,11.6c2.7,1.4,5.9-0.9,5.3-3.9l-4.2-24.5l17.8-17.4
		C1003.2,528.6,1002,524.9,999,524.5z M999,528.7l-18.9,18.4l4.5,26c0,0.3,0,0.5-0.2,0.7c-0.2,0.2-0.4,0.3-0.6,0.3
		c-0.1,0-0.3,0-0.4-0.1L960,561.7L936.7,574c-0.1,0.1-0.3,0.1-0.4,0.1c-0.2,0-0.5-0.1-0.6-0.3c-0.2-0.2-0.2-0.4-0.2-0.7l4.5-26
		L921,528.7c-0.3-0.3-0.3-0.6-0.2-0.8c0.1-0.2,0.2-0.5,0.7-0.6l26.1-3.8l11.7-23.7c0.2-0.4,0.5-0.5,0.7-0.5s0.5,0.1,0.7,0.5
		l11.7,23.7l26.1,3.8c0.4,0.1,0.6,0.3,0.7,0.6C999.3,528.1,999.3,528.4,999,528.7z"/>
</g>
<g id="Calque_2" class="st1">
	<g class="st2">
		
			<linearGradient id="SVGID_00000138543161947095558320000009752764457195699119_" gradientUnits="userSpaceOnUse" x1="954.5794" y1="499.8803" x2="969.6775" y2="578.2314">
			<stop  offset="0" style="stop-color:#FDD733"/>
			<stop  offset="1" style="stop-color:#F9AB21"/>
		</linearGradient>
		<path style="fill:url(#SVGID_00000138543161947095558320000009752764457195699119_);" d="M963.3,498.6l11,22.3l24.6,3.6
			c3,0.4,4.2,4.1,2,6.3l-17.8,17.4l4.2,24.5c0.5,3-2.6,5.3-5.3,3.9L960,565l-22,11.6c-2.7,1.4-5.9-0.9-5.3-3.9l4.2-24.5L919,530.8
			c-2.2-2.1-1-5.8,2-6.3l24.6-3.6l11-22.3C958.1,495.8,962,495.8,963.3,498.6z"/>
		
			<linearGradient id="SVGID_00000041285442446525519190000013769021045220995499_" gradientUnits="userSpaceOnUse" x1="957.9326" y1="506.5813" x2="964.1308" y2="570.47">
			<stop  offset="0" style="stop-color:#FDE265"/>
			<stop  offset="1" style="stop-color:#FDD733"/>
		</linearGradient>
		<path style="fill:url(#SVGID_00000041285442446525519190000013769021045220995499_);" d="M983.8,574.1c-0.1,0-0.3,0-0.4-0.1
			L960,561.7L936.7,574c-0.1,0.1-0.3,0.1-0.4,0.1c-0.2,0-0.5-0.1-0.6-0.3c-0.2-0.2-0.2-0.4-0.2-0.7l4.5-26L921,528.7
			c-0.3-0.3-0.3-0.6-0.2-0.8c0.1-0.2,0.2-0.5,0.7-0.6l26.1-3.8l11.7-23.7c0.2-0.4,0.5-0.5,0.7-0.5s0.5,0.1,0.7,0.5l11.7,23.7
			l26.1,3.8c0.4,0.1,0.6,0.3,0.7,0.6c0.1,0.2,0.1,0.5-0.2,0.8l-18.9,18.4l4.5,26c0,0.3,0,0.5-0.2,0.7
			C984.3,574,984,574.1,983.8,574.1z"/>
		
			<radialGradient id="SVGID_00000108270405881902581400000000318275163178162573_" cx="1073.303" cy="639.6797" r="47.1137" gradientTransform="matrix(0.9536 0 0 0.9536 -57.8364 -55.908)" gradientUnits="userSpaceOnUse">
			<stop  offset="0" style="stop-color:#FCED97"/>
			<stop  offset="1" style="stop-color:#000000"/>
		</radialGradient>
		<path style="fill:url(#SVGID_00000108270405881902581400000000318275163178162573_);" d="M999.2,527.9c-0.1-0.2-0.2-0.5-0.7-0.6
			l-26.1-3.8l-11.7-23.7c-0.2-0.4-0.5-0.5-0.7-0.5s-0.5,0.1-0.7,0.5l-11.7,23.7l-26.1,3.8c-0.4,0.1-0.6,0.3-0.7,0.6
			c-0.1,0.2-0.1,0.5,0.2,0.8l6.2,6c10.2-4.8,23.8-5.5,37.4-1.1c7.3,2.4,13.6,6,18.8,10.3l15.6-15.2
			C999.3,528.4,999.3,528.1,999.2,527.9z"/>
		
			<linearGradient id="SVGID_00000142859895200973558050000010209938614636202896_" gradientUnits="userSpaceOnUse" x1="959.5795" y1="500.8594" x2="960.7715" y2="574.0453">
			<stop  offset="0" style="stop-color:#FDD733"/>
			<stop  offset="1" style="stop-color:#FBC12A"/>
		</linearGradient>
		<path style="fill:url(#SVGID_00000142859895200973558050000010209938614636202896_);" d="M999,528.7c0.3-0.3,0.3-0.6,0.2-0.8
			c-0.1-0.2-0.2-0.5-0.7-0.6l-26.1-3.8l-11.7-23.7c-0.2-0.4-0.5-0.5-0.7-0.5s-0.5,0.1-0.7,0.5l-11.7,23.7l-26.1,3.8
			c-0.4,0.1-0.6,0.3-0.7,0.6c-0.1,0.2-0.1,0.5,0.2,0.8l18.9,18.4l-4.5,26c0,0.3,0,0.5,0.2,0.7c0.2,0.2,0.4,0.3,0.6,0.3
			c0.1,0,0.3,0,0.4-0.1l23.4-12.3l23.4,12.3c0.1,0.1,0.3,0.1,0.4,0.1c0.2,0,0.5-0.1,0.6-0.3c0.2-0.2,0.2-0.4,0.2-0.7l-4.5-26
			L999,528.7z M983.9,573.3C983.8,573.4,983.8,573.4,983.9,573.3L960,560.9l-23.7,12.5c0,0-0.1,0-0.1-0.1l4.5-26.4l-19.2-18.7
			c0,0,0,0,0-0.1c0-0.1,0-0.1,0.1-0.1l26.5-3.9l11.9-24c0-0.1,0-0.1,0.1-0.1s0.1,0,0.1,0.1l11.9,24l26.5,3.9c0.1,0,0.1,0,0.1,0.1
			c0,0.1,0,0.1,0,0.1l-19.2,18.7L983.9,573.3z"/>
	</g>
</g>
</svg>
