<?xml version="1.0" encoding="utf-8"?>
<!-- Generator: Adobe Illustrator 27.2.0, SVG Export Plug-In . SVG Version: 6.00 Build 0)  -->
<svg version="1.1" id="Calque_1" xmlns="http://www.w3.org/2000/svg" xmlns:xlink="http://www.w3.org/1999/xlink" x="0px" y="0px"
	 viewBox="0 0 2490 2500" style="enable-background:new 0 0 2490 2500;" xml:space="preserve">
<style type="text/css">
	.st0{display:none;}
	.st1{display:inline;}
	.st2{fill:#FFFFFF;}
	.st3{fill:#B2B2B2;}
</style>
<g id="Calque_1_00000090265606249559769940000007868510644608727429_" class="st0">
	<path class="st1" d="M1245,8C557.4,8,0,565.4,0,1253s557.4,1245,1245,1245s1245-557.4,1245-1245S1932.6,8,1245,8z M1913.6,727.5
		c-57.5,2.1-97.3-32.3-99.1-84.6c-0.6-19.2,4.3-35.9,17.4-55.5c12.9-25.2,15.6-28,15.3-39c-1.2-32.9-50.9-34.2-64.5-33.5
		c-186.6,6.1-235.8,258-275.7,462.8l-19.5,108c107.5,15.8,183.8-3.6,226.3-31.2c59.9-38.8-16.7-78.8-7.1-123
		c9.8-45.1,50.8-66.9,83.5-67.8c45.6-1.1,78.2,46.2,77.1,94.2c-1.6,79.4-107,188.5-317.6,184.1c-25.7-0.6-49.3-2.4-71.3-5
		l-39.7,219.4c-35.6,166.2-82.9,393.2-252.1,591.3c-145.3,172.8-292.8,199.7-358.9,201.9c-123.5,4.2-205.5-61.7-208.4-149.6
		c-2.8-85.1,72.5-131.6,121.9-133.3c66-2.2,111.6,45.6,113.4,100.7c1.7,46.6-22.7,61.2-38.8,69.9c-10.8,8.7-27,17.5-26.3,36.7
		c0.4,8.2,9.2,27,36.6,26.2c52.3-1.8,86.9-27.6,111.2-44.9c120.4-100.3,166.7-275.1,227.4-593.3l12.6-77.1
		c20.7-103.5,43.6-218.9,78.7-333.8c-84.9-63.9-135.8-143-249.9-174c-78.2-21.3-125.9-3.2-159.4,39.2
		c-39.7,50.2-26.5,115.6,11.8,153.9l63.4,70.1c77.8,89.8,120.2,159.7,104.2,253.7c-25.4,150.1-204.1,265.2-415.5,200.2
		c-180.4-55.6-214.1-183.3-192.4-253.7c19.1-61.9,68.3-73.6,116.4-58.9c51.6,15.9,71.7,78.5,57,126.7c-1.7,5.1-4.3,13.7-9.7,25.2
		c-5.9,13.4-17,24.9-21.8,40.4c-11.6,37.8,40.2,64.7,76.2,75.7c80.7,24.9,159.4-17.4,179.4-82.6c18.5-60-19.4-101.9-35.1-118
		l-76.4-81.9c-34.9-39-111.9-147.5-74.4-269.4c14.5-46.9,44.9-96.8,89.1-129.9c93.3-69.5,194.8-81,291.4-53.2
		c125,36,185.1,118.7,263,182.6c43.6-127.8,104-253.1,194.9-358.6c82.1-96.3,192.3-165.9,318.6-170.3l0,0
		c126.2-4.1,221.6,53,224.7,143.5C2012.8,650,1990.6,725,1913.6,727.5z"/>
</g>
<g id="Calque_3">
	<circle cx="1245" cy="1245" r="1245"/>
</g>
<g id="Calque_4" class="st0">
	<circle class="st1" cx="1245" cy="1245" r="1245"/>
	<g class="st1">
		<path class="st2" d="M618.7,2023l-126-1539.7l1504.6,3.1L1864.1,2023l-613.4,177.6L618.7,2023z"/>
		<path class="st3" d="M1250.7,2052V629.9l619.6,2.1l-110.5,1272.3L1250.7,2052z"/>
		<path d="M1716.4,811.8H763.3l25.8,185.8h452.3l-445,191.1l25.8,179.7H1478l-23.8,251l-222,43.4l-201.4-51.6l-15.5-142.5h-185
			l24.7,296.4l396.5,110.5l380.1-120.8l48.6-579.3h-401.8l437.9-181.8L1716.4,811.8z"/>
	</g>
</g>
<g id="Calque_2_00000155135655282453238150000015863516990259669643_" class="st0">
	<circle class="st1" cx="1245" cy="1245" r="1245"/>
	<g class="st1">
		<path class="st2" d="M2113.2,1197.7c0-110.5-138.4-215.3-350.7-280.3c49-216.3,27.2-388.4-68.7-443.5c-22.1-12.9-48-19-76.2-19
			v75.8c15.7,0,28.2,3,38.8,8.8c46.2,26.5,66.3,127.5,50.7,257.4c-3.7,31.9-9.9,65.6-17.3,100c-66.7-16.4-139.5-28.9-216-37
			c-45.9-62.9-93.5-120.1-141.5-170.1c110.9-103.1,214.9-159.5,285.7-159.5v-75.8c-93.5,0-216,66.7-339.8,182.3
			c-123.8-115-246.3-180.9-339.8-180.9v75.8c70.4,0,174.8,56.1,285.7,158.5c-47.6,50-95.2,106.8-140.5,169.7
			c-76.9,8.1-149.7,20.8-216.3,37.4c-7.8-34-13.6-67-17.7-98.6c-16-129.9,3.7-231,49.7-257.8c10.2-6.1,23.5-8.8,39.1-8.8v-75.8
			c-28.6,0-54.5,6.1-76.9,19c-95.6,55.1-117,226.9-67.7,442.5c-211.5,65.3-349.2,169.7-349.2,279.9c0,110.5,138.4,215.3,350.7,280.3
			c-49,216.3-27.2,388.4,68.7,443.5c22.1,12.9,48,19,76.5,19c93.5,0,216-66.7,339.8-182.3c123.8,115,246.3,180.9,339.8,180.9
			c28.6,0,54.5-6.1,76.9-19c95.6-55.1,117-226.9,67.7-442.5C1975.5,1412.7,2113.2,1307.9,2113.2,1197.7L2113.2,1197.7z
			 M1670.3,970.8c-12.5,43.9-28.2,89.1-45.9,134.3c-13.9-27.2-28.6-54.5-44.6-81.6c-15.7-27.2-32.3-53.8-49-79.6
			C1579.2,951.1,1625.8,959.9,1670.3,970.8L1670.3,970.8z M1514.6,1333.1c-26.5,45.9-53.8,89.4-82,129.9
			c-50.7,4.4-102.1,6.8-153.7,6.8c-51.3,0-102.7-2.4-153-6.5c-28.2-40.5-55.7-83.7-82.3-129.2c-25.9-44.6-49.3-89.8-70.7-135.4
			c21.1-45.6,44.9-91.2,70.4-135.7c26.5-45.9,53.8-89.4,82-129.9c50.7-4.4,102.1-6.8,153.7-6.8c51.3,0,102.7,2.4,153,6.5
			c28.2,40.5,55.7,83.7,82.3,129.2c25.9,44.6,49.3,89.8,70.7,135.4C1563.6,1242.9,1540.1,1288.5,1514.6,1333.1L1514.6,1333.1z
			 M1624.5,1288.9c18.3,45.6,34,91.2,46.9,135.4c-44.6,10.9-91.5,20.1-140.1,27.2c16.7-26.2,33.3-53.1,49-80.6
			C1595.9,1343.6,1610.5,1316.1,1624.5,1288.9L1624.5,1288.9z M1279.6,1651.7c-31.6-32.6-63.3-69.1-94.5-108.8
			c30.6,1.4,61.9,2.4,93.5,2.4c31.9,0,63.6-0.7,94.5-2.4C1342.5,1582.7,1310.8,1619.1,1279.6,1651.7z M1026.5,1451.4
			c-48.3-7.1-94.9-16-139.5-26.8c12.5-43.9,28.2-89.1,45.9-134.3c13.9,27.2,28.6,54.5,44.6,81.6
			C993.5,1399,1009.9,1425.6,1026.5,1451.4z M1277.9,743.6c31.6,32.6,63.3,69.1,94.5,108.8c-30.6-1.4-61.9-2.4-93.5-2.4
			c-31.9,0-63.6,0.7-94.5,2.4C1214.9,812.7,1246.6,776.3,1277.9,743.6z M1026.2,944c-16.7,26.2-33.3,53.1-49,80.6
			c-15.7,27.2-30.3,54.5-44.2,81.6c-18.3-45.6-34-91.2-46.9-135.4C930.6,960.3,977.6,951.1,1026.2,944L1026.2,944z M718.4,1369.8
			c-120.4-51.3-198.3-118.7-198.3-172.1s77.9-121.1,198.3-172.1c29.3-12.5,61.2-23.8,94.2-34.4c19.4,66.7,44.9,136.1,76.5,207.1
			c-31.3,70.7-56.4,139.8-75.5,206.1C779.9,1394,748,1382.4,718.4,1369.8L718.4,1369.8z M901.4,1855.8
			c-46.2-26.5-66.3-127.5-50.7-257.4c3.7-31.9,9.9-65.6,17.3-100c66.7,16.4,139.5,28.9,216,37c45.9,62.9,93.5,120.1,141.5,170.1
			c-110.9,103.1-214.9,159.5-285.7,159.5C924.5,1864.7,911.6,1861.6,901.4,1855.8L901.4,1855.8z M1708.1,1596.6
			c16,129.9-3.7,231-49.7,257.8c-10.2,6.1-23.5,8.8-39.1,8.8c-70.4,0-174.8-56.1-285.7-158.5c47.6-50,95.2-106.8,140.5-169.7
			c76.9-8.1,149.7-20.8,216.3-37.4C1698.2,1532,1704.4,1565,1708.1,1596.6z M1839.1,1369.8c-29.3,12.5-61.2,23.8-94.2,34.4
			c-19.4-66.7-44.9-136.1-76.5-207.1c31.3-70.7,56.4-139.8,75.5-206.1c33.7,10.6,65.6,22.1,95.6,34.7
			c120.4,51.3,198.3,118.7,198.3,172.1C2037.4,1251.1,1959.5,1318.8,1839.1,1369.8L1839.1,1369.8z"/>
		<circle class="st2" cx="1278.6" cy="1197.7" r="155.5"/>
	</g>
</g>
<path class="st2" d="M452,452h1586v1586H452V452z"/>
<path d="M1908.2,1659.7c-11.6-72.4-58.8-133.1-198.6-189.8c-48.5-22.3-102.7-38.3-118.8-75.1c-5.7-21.4-6.5-33.5-2.9-46.4
	c10.4-42.1,60.6-55.2,100.4-43.1c25.6,8.6,49.9,28.3,64.5,59.9c68.4-44.3,68.3-44,116.1-74.5c-17.5-27.1-26.8-39.7-38.3-51.3
	c-41.2-46-97.2-69.7-186.9-67.8c-15.5,2-31.2,4.1-46.7,6c-44.8,11.3-87.4,34.8-112.5,66.3c-75.1,85.2-53.7,234.3,37.7,295.6
	c90,67.5,222.2,82.9,239.1,146.1c16.4,77.3-56.8,102.4-129.7,93.5c-53.7-11.2-83.5-38.4-115.8-88c-59.4,34.4-59.4,34.4-120.5,69.5
	c14.5,31.7,29.7,46,54,73.4c114.9,116.5,402.4,110.8,453.9-65.6C1905.5,1762.4,1919.4,1722,1908.2,1659.7z M1314.2,1180.9h-148.3
	c0,128.1-0.6,255.4-0.6,383.5c0,81.6,4.2,156.3-9,179.3c-21.7,45.1-77.9,39.5-103.6,30.8c-26.1-12.8-39.3-31.1-54.7-56.8
	c-4.2-7.4-7.4-13.1-8.4-13.6c-40.3,24.6-80.4,49.3-120.6,73.9c20.1,41.2,49.6,76.9,87.4,100.1c56.5,33.9,132.5,44.3,212,26.1
	c51.7-15.1,96.3-46.3,119.7-93.8c33.8-62.3,26.5-137.6,26.2-221C1315,1453.4,1314.2,1317.4,1314.2,1180.9L1314.2,1180.9z"/>
</svg>
