<?xml version="1.0" encoding="utf-8"?>
<!-- Generator: Adobe Illustrator 27.2.0, SVG Export Plug-In . SVG Version: 6.00 Build 0)  -->
<svg version="1.1" id="Calque_1" xmlns="http://www.w3.org/2000/svg" xmlns:xlink="http://www.w3.org/1999/xlink" x="0px" y="0px"
	 viewBox="0 0 2490 2500" style="enable-background:new 0 0 2490 2500;" xml:space="preserve">
<path d="M1245,8C557.4,8,0,565.4,0,1253s557.4,1245,1245,1245s1245-557.4,1245-1245S1932.6,8,1245,8z M1913.6,727.5
	c-57.5,2.1-97.3-32.3-99.1-84.6c-0.6-19.2,4.3-35.9,17.4-55.5c12.9-25.2,15.6-28,15.3-39c-1.2-32.9-50.9-34.2-64.5-33.5
	c-186.6,6.1-235.8,258-275.7,462.8l-19.5,108c107.5,15.8,183.8-3.6,226.3-31.2c59.9-38.8-16.7-78.8-7.1-123
	c9.8-45.1,50.8-66.9,83.5-67.8c45.6-1.1,78.2,46.2,77.1,94.2c-1.6,79.4-107,188.5-317.6,184.1c-25.7-0.6-49.3-2.4-71.3-5
	l-39.7,219.4c-35.6,166.2-82.9,393.2-252.1,591.3c-145.3,172.8-292.8,199.7-358.9,201.9c-123.5,4.2-205.5-61.7-208.4-149.6
	c-2.8-85.1,72.5-131.6,121.9-133.3c66-2.2,111.6,45.6,113.4,100.7c1.7,46.6-22.7,61.2-38.8,69.9c-10.8,8.7-27,17.5-26.3,36.7
	c0.4,8.2,9.2,27,36.6,26.2c52.3-1.8,86.9-27.6,111.2-44.9c120.4-100.3,166.7-275.1,227.4-593.3l12.6-77.1
	c20.7-103.5,43.6-218.9,78.7-333.8c-84.9-63.9-135.8-143-249.9-174c-78.2-21.3-125.9-3.2-159.4,39.2
	c-39.7,50.2-26.5,115.6,11.8,153.9l63.4,70.1c77.8,89.8,120.2,159.7,104.2,253.7c-25.4,150.1-204.1,265.2-415.5,200.2
	c-180.4-55.6-214.1-183.3-192.4-253.7c19.1-61.9,68.3-73.6,116.4-58.9c51.6,15.9,71.7,78.5,57,126.7c-1.7,5.1-4.3,13.7-9.7,25.2
	c-5.9,13.4-17,24.9-21.8,40.4c-11.6,37.8,40.2,64.7,76.2,75.7c80.7,24.9,159.4-17.4,179.4-82.6c18.5-60-19.4-101.9-35.1-118
	l-76.4-81.9c-34.9-39-111.9-147.5-74.4-269.4c14.5-46.9,44.9-96.8,89.1-129.9c93.3-69.5,194.8-81,291.4-53.2
	c125,36,185.1,118.7,263,182.6c43.6-127.8,104-253.1,194.9-358.6c82.1-96.3,192.3-165.9,318.6-170.3h0
	c126.2-4.1,221.6,53,224.7,143.5C2012.8,650,1990.6,725,1913.6,727.5z"/>
</svg>
